# xmcd
#
# Track frame offsets:
#	150
#	12908
#	38660
#	54775
#	73305
#	92087
#	107262
#	122802
#	140055
#	160800
#	178855
#	192590
#	214987
#	233115
#	258252
#	279837
#	299680
#
# Disc length: 4231 seconds
# Revision: 0
# Processed by: cddbd v1.5.2PL0 Copyright (c) Steve Scherf et al.
# Submitted via: dBpowerAMP V12.0
#
DISCID=fb108511
DTITLE=Earth, Wind and Fire - Greatest Hits
DYEAR=1998
DGENRE=Soul
TTITLE0=Shining Star
TTITLE1=That's The Way Of The World
TTITLE2=September
TTITLE3=Can't Hide Love
TTITLE4=Got To Get You Into My Life
TTITLE5=Sing A Song
TTITLE6=Gratitude
TTITLE7=Serpentine Fire
TTITLE8=Fantasy
TTITLE9=Kalimba Story
TTITLE10=Mighty Mighty
TTITLE11=Reasons
TTITLE12=Saturday Nite
TTITLE13=Let's Groove
TTITLE14=Boogie Wonderland
TTITLE15=After The Love Has Gone
TTITLE16=Getaway
EXTD=
EXTT0=
EXTT1=
EXTT2=
EXTT3=
EXTT4=
EXTT5=
EXTT6=
EXTT7=
EXTT8=
EXTT9=
EXTT10=
EXTT11=
EXTT12=
EXTT13=
EXTT14=
EXTT15=
EXTT16=
PLAYORDER=
